<svg width="32" height="32" viewBox="0 0 32 32" fill="none" xmlns="http://www.w3.org/2000/svg">
  <path d="M29.8836 6.146L16.7418 29.6457C16.4517 30.1431 15.7262 30.1431 15.4415 29.6457L2.14601 6.14527C1.82091 5.59559 2.24767 4.89571 2.87397 4.99523L16.0605 7.56393C16.123 7.5788 16.1855 7.5788 16.2456 7.56393L29.1512 4.99523C29.7775 4.89571 30.2089 5.59559 29.8836 6.146Z" fill="#447DFB"/>
  <path d="M22.6839 2.99922L13.3626 5.05513C13.1329 5.11198 12.9534 5.29801 12.9035 5.53362L10.0722 19.7995C9.996 20.1611 10.2832 20.5005 10.6489 20.488L14.2084 20.3163C14.6091 20.3019 14.9201 20.6726 14.8263 21.0635L13.4504 27.0328C13.3151 27.6123 14.0486 27.9908 14.388 27.5277L14.5748 27.2782L21.723 15.5322C21.9071 15.217 21.6773 14.8178 21.3139 14.8322L17.5761 15.005C17.1658 15.0218 16.8549 14.6343 16.9705 14.2386L19.0822 5.58883C19.1978 5.19313 18.8869 4.80564 18.4766 4.82242L22.6839 2.99922Z" fill="#1976D2"/>
</svg>